<svg xmlns="http://www.w3.org/2000/svg" width="1000" height="560" viewBox="0 0 1000 560">
<rect width="100%" height="100%" fill="white"/>
<text x="500.0" y="30" font-size="18" text-anchor="middle">Verifier time breakdown</text>
<line x1="80" y1="490" x2="740" y2="490" stroke="black"/>
<line x1="80" y1="60" x2="80" y2="490" stroke="black"/>
<rect x="101.21" y="397.02" width="51.86" height="92.98" fill="#1f77b4"/>
<rect x="101.21" y="389.66" width="51.86" height="7.36" fill="#ff7f0e"/>
<rect x="101.21" y="389.59" width="51.86" height="0.07" fill="#2ca02c"/>
<rect x="101.21" y="315.94" width="51.86" height="73.66" fill="#d62728"/>
<rect x="101.21" y="315.94" width="51.86" height="0.00" fill="#8c564b"/>
<rect x="101.21" y="315.93" width="51.86" height="0.00" fill="#e377c2"/>
<rect x="101.21" y="315.92" width="51.86" height="0.02" fill="#7f7f7f"/>
<rect x="101.21" y="315.92" width="51.86" height="0.00" fill="#bcbd22"/>
<rect x="101.21" y="315.92" width="51.86" height="0.00" fill="#17becf"/>
<text x="127.14" y="525" font-size="12" text-anchor="middle">1</text>
<rect x="195.50" y="395.79" width="51.86" height="94.21" fill="#1f77b4"/>
<rect x="195.50" y="388.12" width="51.86" height="7.68" fill="#ff7f0e"/>
<rect x="195.50" y="388.03" width="51.86" height="0.09" fill="#2ca02c"/>
<rect x="195.50" y="308.17" width="51.86" height="79.86" fill="#d62728"/>
<rect x="195.50" y="308.15" width="51.86" height="0.02" fill="#7f7f7f"/>
<rect x="195.50" y="308.14" width="51.86" height="0.00" fill="#bcbd22"/>
<rect x="195.50" y="308.14" width="51.86" height="0.00" fill="#17becf"/>
<text x="221.43" y="525" font-size="12" text-anchor="middle">2</text>
<rect x="289.79" y="396.37" width="51.86" height="93.63" fill="#1f77b4"/>
<rect x="289.79" y="388.51" width="51.86" height="7.86" fill="#ff7f0e"/>
<rect x="289.79" y="388.43" width="51.86" height="0.08" fill="#2ca02c"/>
<rect x="289.79" y="311.03" width="51.86" height="77.41" fill="#d62728"/>
<rect x="289.79" y="311.03" width="51.86" height="0.00" fill="#e377c2"/>
<rect x="289.79" y="311.01" width="51.86" height="0.02" fill="#7f7f7f"/>
<rect x="289.79" y="311.00" width="51.86" height="0.00" fill="#bcbd22"/>
<rect x="289.79" y="311.00" width="51.86" height="0.00" fill="#17becf"/>
<text x="315.71" y="525" font-size="12" text-anchor="middle">4</text>
<rect x="384.07" y="379.76" width="51.86" height="110.24" fill="#1f77b4"/>
<rect x="384.07" y="372.02" width="51.86" height="7.74" fill="#ff7f0e"/>
<rect x="384.07" y="371.94" width="51.86" height="0.09" fill="#2ca02c"/>
<rect x="384.07" y="284.43" width="51.86" height="87.51" fill="#d62728"/>
<rect x="384.07" y="284.40" width="51.86" height="0.03" fill="#7f7f7f"/>
<rect x="384.07" y="284.40" width="51.86" height="0.00" fill="#bcbd22"/>
<rect x="384.07" y="284.39" width="51.86" height="0.00" fill="#17becf"/>
<text x="410.00" y="525" font-size="12" text-anchor="middle">8</text>
<rect x="478.36" y="333.28" width="51.86" height="156.72" fill="#1f77b4"/>
<rect x="478.36" y="325.38" width="51.86" height="7.90" fill="#ff7f0e"/>
<rect x="478.36" y="325.28" width="51.86" height="0.10" fill="#2ca02c"/>
<rect x="478.36" y="210.94" width="51.86" height="114.34" fill="#d62728"/>
<rect x="478.36" y="210.94" width="51.86" height="0.00" fill="#8c564b"/>
<rect x="478.36" y="210.93" width="51.86" height="0.00" fill="#e377c2"/>
<rect x="478.36" y="210.88" width="51.86" height="0.06" fill="#7f7f7f"/>
<rect x="478.36" y="210.88" width="51.86" height="0.00" fill="#bcbd22"/>
<rect x="478.36" y="210.87" width="51.86" height="0.00" fill="#17becf"/>
<text x="504.29" y="525" font-size="12" text-anchor="middle">16</text>
<rect x="572.64" y="321.33" width="51.86" height="168.67" fill="#1f77b4"/>
<rect x="572.64" y="313.55" width="51.86" height="7.78" fill="#ff7f0e"/>
<rect x="572.64" y="313.44" width="51.86" height="0.10" fill="#2ca02c"/>
<rect x="572.64" y="157.36" width="51.86" height="156.09" fill="#d62728"/>
<rect x="572.64" y="157.24" width="51.86" height="0.11" fill="#7f7f7f"/>
<rect x="572.64" y="157.24" width="51.86" height="0.00" fill="#17becf"/>
<text x="598.57" y="525" font-size="12" text-anchor="middle">32</text>
<rect x="666.93" y="311.75" width="51.86" height="178.25" fill="#1f77b4"/>
<rect x="666.93" y="304.13" width="51.86" height="7.62" fill="#ff7f0e"/>
<rect x="666.93" y="304.01" width="51.86" height="0.12" fill="#2ca02c"/>
<rect x="666.93" y="60.22" width="51.86" height="243.79" fill="#d62728"/>
<rect x="666.93" y="60.22" width="51.86" height="0.00" fill="#8c564b"/>
<rect x="666.93" y="60.22" width="51.86" height="0.00" fill="#e377c2"/>
<rect x="666.93" y="60.00" width="51.86" height="0.21" fill="#7f7f7f"/>
<rect x="666.93" y="60.00" width="51.86" height="0.00" fill="#bcbd22"/>
<rect x="666.93" y="60.00" width="51.86" height="0.00" fill="#17becf"/>
<text x="692.86" y="525" font-size="12" text-anchor="middle">64</text>
<text x="750" y="60" font-size="11" fill="#1f77b4">verify_whir_pcs_ms</text>
<text x="750" y="78" font-size="11" fill="#ff7f0e">verify_transcript_ms</text>
<text x="750" y="96" font-size="11" fill="#2ca02c">verify_sumcheck_rounds_ms</text>
<text x="750" y="114" font-size="11" fill="#d62728">verify_final_constraint_eval_ms</text>
<text x="750" y="132" font-size="11" fill="#9467bd">verify_final_eval_manifest_ms</text>
<text x="750" y="150" font-size="11" fill="#8c564b">verify_final_eval_source_r1cs_ms</text>
<text x="750" y="168" font-size="11" fill="#e377c2">verify_final_eval_folded_boundary_ms</text>
<text x="750" y="186" font-size="11" fill="#7f7f7f">verify_final_eval_product_residual_ms</text>
<text x="750" y="204" font-size="11" fill="#bcbd22">verify_final_eval_ajtai_ms</text>
<text x="750" y="222" font-size="11" fill="#17becf">verify_final_eval_range_ms</text>
<text x="750" y="240" font-size="11" fill="#393b79">verify_final_eval_message_view_ms</text>
</svg>
