<svg xmlns="http://www.w3.org/2000/svg" width="900" height="520" viewBox="0 0 900 520">
<rect width="100%" height="100%" fill="white"/>
<text x="450.0" y="30" font-size="18" text-anchor="middle">verify_ms vs k | log-log slope ~= 0.223</text>
<line x1="80" y1="450" x2="870" y2="450" stroke="black"/>
<line x1="80" y1="60" x2="80" y2="450" stroke="black"/>
<text x="450.0" y="510" font-size="14" text-anchor="middle">k</text>
<text x="18" y="260.0" font-size="14" text-anchor="middle" transform="rotate(-90 18 260.0)">verify_ms</text>
<text x="80.00" y="485" font-size="12" text-anchor="middle">1</text>
<text x="211.67" y="485" font-size="12" text-anchor="middle">2</text>
<text x="343.33" y="485" font-size="12" text-anchor="middle">4</text>
<text x="475.00" y="485" font-size="12" text-anchor="middle">8</text>
<text x="606.67" y="485" font-size="12" text-anchor="middle">16</text>
<text x="738.33" y="485" font-size="12" text-anchor="middle">32</text>
<text x="870.00" y="485" font-size="12" text-anchor="middle">64</text>
<polyline points="80.00,450.00 211.67,435.29 343.33,435.37 475.00,397.17 606.67,287.01 738.33,202.02 870.00,60.00" fill="none" stroke="#1f77b4" stroke-width="2"/>
<circle cx="80.00" cy="450.00" r="4" fill="#1f77b4" />
<circle cx="211.67" cy="435.29" r="4" fill="#1f77b4" />
<circle cx="343.33" cy="435.37" r="4" fill="#1f77b4" />
<circle cx="475.00" cy="397.17" r="4" fill="#1f77b4" />
<circle cx="606.67" cy="287.01" r="4" fill="#1f77b4" />
<circle cx="738.33" cy="202.02" r="4" fill="#1f77b4" />
<circle cx="870.00" cy="60.00" r="4" fill="#1f77b4" />
</svg>
